<svg xmlns="http://www.w3.org/2000/svg" xmlns:xlink="http://www.w3.org/1999/xlink" viewBox="0,0,256,256" width="50px" height="50px"><g fill="#ffffff" fill-rule="nonzero" stroke="none" stroke-width="1" stroke-linecap="butt" stroke-linejoin="miter" stroke-miterlimit="10" stroke-dasharray="" stroke-dashoffset="0" font-family="none" font-weight="none" font-size="none" text-anchor="none" style="mix-blend-mode: normal"><g transform="scale(5.12,5.12)"><path d="M9,4c-2.74952,0 -5,2.25048 -5,5v32c0,2.74952 2.25048,5 5,5h32c2.74952,0 5,-2.25048 5,-5v-32c0,-2.74952 -2.25048,-5 -5,-5zM9,6h32c1.66848,0 3,1.33152 3,3v32c0,1.66848 -1.33152,3 -3,3h-32c-1.66848,0 -3,-1.33152 -3,-3v-32c0,-1.66848 1.33152,-3 3,-3zM15,8c0.414,1.013 2.402,5.38114 3,6.99414v4.00586h2v-4l3,-7h-2.40039l-1.59961,4l-1.59961,-4zM25,11c-1.006,0 -1.77103,0.27531 -2.33203,0.94531c-0.433,0.495 -0.66602,1.28894 -0.66602,2.33594l-0.00195,1.44531c0,1.041 0.20567,1.76095 0.63867,2.25195c0.562,0.667 1.47233,1.02148 2.36133,1.02148c0.889,0 1.81591,-0.35444 2.37891,-1.02344c0.426,-0.49 0.62109,-1.209 0.62109,-2.25v-1.45117c0,-1.048 -0.24197,-1.83508 -0.66797,-2.33008c-0.562,-0.67 -1.44303,-0.94531 -2.33203,-0.94531zM29,11v5.83789c0,0.66 0.09828,1.10848 0.23828,1.39648c0.23,0.473 0.69056,0.71533 1.35156,0.73633c0.911,0.03 1.59516,-0.5607 2.41016,-1.3457v1.375h2v-8h-2v5.375c-0.455,0.539 -0.97863,1.01758 -1.39062,1.01758c-0.273,0 -0.55937,-0.12558 -0.60937,-0.39258v-6zM25,12.61914c0.552,0 1,0.45748 1,1.02148v2.80664c0,0.563 -0.448,1.02148 -1,1.02148c-0.552,0 -1,-0.45748 -1,-1.02148v-2.80664c0,-0.563 0.448,-1.02148 1,-1.02148zM24.99023,22c0,0 -6.70945,0.00031 -11.18945,0.32031c-0.63,0.07 -1.99094,0.08008 -3.21094,1.33008c-0.96,0.94 -1.26953,3.09961 -1.26953,3.09961c0,0 -0.32031,1.53055 -0.32031,4.06055v2.36914c0,2.53 0.32031,4.06055 0.32031,4.06055c0,0 0.30953,2.15937 1.26953,3.10938c1.22,1.24 2.8193,1.20008 3.5293,1.33008c2.56,0.24 10.88086,0.32031 10.88086,0.32031c0,0 6.71922,-0.01008 11.19922,-0.33008c0.63,-0.07 1.99094,-0.08008 3.21094,-1.33008c0.96,-0.94 1.26953,-3.09961 1.26953,-3.09961c0,0 0.32031,-1.53055 0.32031,-4.06055v-2.36914c0,-2.53 -0.32031,-4.06055 -0.32031,-4.06055c0,0 -0.30953,-2.15961 -1.26953,-3.09961c-1.22,-1.25 -2.58094,-1.26008 -3.21094,-1.33008c-4.48,-0.32 -11.18945,-0.32031 -11.18945,-0.32031zM12,26h6v2h-2v10h-2v-10h-2zM25,26h2v4.38086c0.75,-0.88 1.14914,-1.39086 2.11914,-1.38086c0.76,0.01 1.37109,0.4407 1.62109,1.2207c0.13,0.42 0.25977,1.17016 0.25977,2.16016v2.75c-0.01,0.88 -0.1007,1.26945 -0.2207,1.68945c-0.25,0.78 -0.90016,1.17969 -1.66016,1.17969c-0.67,0 -1.48914,-0.47 -2.11914,-1.25v1.25h-2zM18,29h2v6.89063c0.05,0.29 0.25953,0.39844 0.51953,0.39844c0.4,0 1.04047,-0.43953 1.48047,-1.01953v-6.26953h2v9h-2v-1.36914c-0.79,0.86 -1.73094,1.36914 -2.46094,1.36914c-0.64,0 -1.08859,-0.27906 -1.30859,-0.78906c-0.13,-0.32 -0.23047,-0.80148 -0.23047,-1.52148zM35.0293,29c0.99,0 1.78008,0.31992 2.33008,0.91992c0.41,0.44 0.64063,1.12055 0.64063,2.06055v2.01953h-4v1.80078c0,0.46 0.45,0.83984 1,0.83984c0.55,0 1,-0.37984 1,-0.83984v-0.80078h2c0,0.51 -0.06031,0.93961 -0.07031,1.09961c-0.07,0.35 -0.22875,0.67117 -0.46875,0.95117c-0.54,0.64 -1.35086,0.94922 -2.38086,0.94922c-1.04,0 -1.82062,-0.30039 -2.39062,-0.90039c-0.42,-0.43 -0.68945,-1.08953 -0.68945,-2.01953v-3.06055c0,-0.94 0.23992,-1.65961 0.66992,-2.09961c0.57,-0.6 1.34938,-0.91992 2.35938,-0.91992zM35,30.44922c-0.55,0 -1,0.36984 -1,0.83984v1.32031h2v-1.32031c0,-0.47 -0.45,-0.83984 -1,-0.83984zM28.2207,30.75c-0.155,0 -0.38117,0.07781 -0.60742,0.19531c-0.11313,0.05875 -0.22687,0.12711 -0.33203,0.20117c-0.10516,0.07406 -0.20125,0.15437 -0.28125,0.23438v4.36914c0.08,0.08 0.17609,0.15406 0.28125,0.21875c0.31547,0.19406 0.70695,0.31055 0.93945,0.31055c0.2025,0 0.36113,-0.04932 0.48242,-0.16797c0.04043,-0.03955 0.0775,-0.08727 0.10938,-0.14258c0.06375,-0.11062 0.10969,-0.25414 0.14063,-0.43555c0.03094,-0.18141 0.04688,-0.40156 0.04688,-0.66406v-2.73828c0,-0.2625 -0.01594,-0.48156 -0.04687,-0.66016c-0.06188,-0.35719 -0.18594,-0.55766 -0.38281,-0.65234c-0.09844,-0.04734 -0.21461,-0.06836 -0.34961,-0.06836z"></path></g></g></svg>